<svg width="40" height="40" viewBox="0 0 40 40" fill="none" xmlns="http://www.w3.org/2000/svg">
<rect width="40" height="40" fill="#E5E5E5" style="fill:#E5E5E5;fill:color(display-p3 0.8980 0.8980 0.8980);fill-opacity:1;"/>
<g id="product_catd 1366" clip-path="url(#clip0_1_3)">
<rect width="1366" height="3400" transform="translate(-989 -500)" fill="white" style="fill:white;fill-opacity:1;"/>
<g id="setting_product">
<g id="filters / expanded / services">
<rect id="back" x="-17.5" y="-45.5" width="311" height="199" rx="6.5" fill="#FAFAFA" stroke="#F2F2F2" style="fill:#FAFAFA;fill:color(display-p3 0.9792 0.9792 0.9792);fill-opacity:1;stroke:#F2F2F2;stroke:color(display-p3 0.9500 0.9500 0.9500);stroke-opacity:1;"/>
<g id="services_unit_product">
<g id="icon">
<rect id="back_2" width="40" height="40" rx="10" fill="#10BB87" style="fill:#10BB87;fill:color(display-p3 0.0627 0.7333 0.5294);fill-opacity:1;"/>
<g id="Outline/Interface/Cancel">
<g id="Icon">
<path d="M17.0592 17.058C17.3032 16.8139 17.699 16.8139 17.943 17.058L20.0011 19.1161L22.0592 17.058C22.3032 16.8139 22.699 16.8139 22.943 17.058C23.1871 17.3021 23.1871 17.6978 22.943 17.9419L20.885 20L22.943 22.058C23.1871 22.3021 23.1871 22.6978 22.943 22.9419C22.699 23.186 22.3032 23.186 22.0592 22.9419L20.0011 20.8839L17.943 22.9419C17.699 23.186 17.3032 23.186 17.0592 22.9419C16.8151 22.6978 16.8151 22.3021 17.0592 22.058L19.1172 20L17.0592 17.9419C16.8151 17.6978 16.8151 17.3021 17.0592 17.058Z" fill="white" style="fill:white;fill-opacity:1;"/>
<path fill-rule="evenodd" clip-rule="evenodd" d="M16.0984 13.1406C18.6713 12.853 21.3308 12.853 23.9038 13.1406C25.4258 13.3107 26.6549 14.5096 26.8339 16.0404C27.1416 18.6711 27.1416 21.3288 26.8339 23.9596C26.6549 25.4904 25.4258 26.6892 23.9038 26.8593C21.3308 27.1469 18.6713 27.1469 16.0984 26.8593C14.5764 26.6892 13.3473 25.4904 13.1683 23.9596C12.8606 21.3288 12.8606 18.6711 13.1683 16.0404C13.3473 14.5096 14.5764 13.3107 16.0984 13.1406ZM23.765 14.3829C21.2843 14.1056 18.7179 14.1056 16.2372 14.3829C15.2835 14.4895 14.5201 15.2422 14.4098 16.1856C14.1134 18.7199 14.1134 21.2801 14.4098 23.8144C14.5201 24.7578 15.2835 25.5105 16.2372 25.6171C18.7179 25.8943 21.2843 25.8943 23.765 25.6171C24.7186 25.5105 25.482 24.7578 25.5924 23.8144C25.8888 21.2801 25.8888 18.7199 25.5924 16.1856C25.482 15.2422 24.7186 14.4895 23.765 14.3829Z" fill="white" style="fill:white;fill-opacity:1;"/>
</g>
</g>
</g>
</g>
</g>
</g>
</g>
<defs>
<clipPath id="clip0_1_3">
<rect width="1366" height="3400" fill="white" style="fill:white;fill-opacity:1;" transform="translate(-989 -500)"/>
</clipPath>
</defs>
</svg>
